<?xml version="1.0" standalone="no"?>
<!DOCTYPE svg PUBLIC "-//W3C//DTD SVG 20010904//EN"
 "http://www.w3.org/TR/2001/REC-SVG-20010904/DTD/svg10.dtd">
<svg version="1.0" xmlns="http://www.w3.org/2000/svg"
 width="512.000000pt" height="512.000000pt" viewBox="0 0 512.000000 512.000000"
 preserveAspectRatio="xMidYMid meet">
<metadata>
Created by potrace 1.16, written by Peter Selinger 2001-2019
</metadata>
<g transform="translate(0.000000,512.000000) scale(0.100000,-0.100000)"
fill="#000000" stroke="none">
<path d="M2845 4563 c-137 -95 -228 -164 -292 -220 -73 -63 -70 -71 -44 112
11 72 18 131 16 133 -4 5 -118 -90 -181 -151 l-62 -59 -7 43 c-13 84 -11 84
-82 6 -91 -100 -140 -167 -158 -213 l-15 -39 6 45 c4 25 19 88 35 140 16 52
29 101 29 107 0 7 -24 -11 -53 -40 -29 -28 -91 -86 -138 -128 -57 -52 -95 -95
-116 -134 l-31 -58 -6 39 c-3 21 -8 78 -12 126 l-6 88 -67 -93 c-36 -50 -80
-118 -97 -151 -24 -45 -33 -54 -37 -40 -3 11 -13 52 -23 92 -10 39 -20 72 -23
72 -3 0 -26 -47 -51 -105 -24 -58 -47 -105 -51 -105 -4 0 -10 28 -14 62 l-7
62 -25 -49 c-14 -27 -45 -108 -69 -180 -34 -103 -43 -122 -44 -92 0 58 -16 44
-31 -28 -7 -35 -16 -62 -20 -59 -4 2 -11 25 -15 51 -6 39 -9 44 -19 30 -10
-14 -15 -8 -37 45 l-25 61 -31 -75 c-36 -86 -77 -223 -87 -291 -8 -52 -9 -53
-56 -33 -19 7 -45 17 -58 21 l-24 7 22 -28 23 -29 -49 -6 c-62 -8 -93 -28
-122 -79 -42 -75 -38 -213 11 -330 l22 -52 -64 -57 -64 -58 42 -7 c23 -3 42
-10 42 -14 0 -23 -56 -143 -87 -184 l-34 -47 55 19 55 19 15 -54 c9 -29 16
-58 16 -64 0 -12 -28 -26 -75 -36 l-30 -7 45 -23 c56 -29 98 -71 84 -85 -6 -6
-30 -14 -53 -18 l-44 -7 36 -47 35 -46 -48 -21 c-27 -12 -53 -21 -59 -21 -18
0 -12 -18 8 -25 10 -3 37 -19 58 -34 39 -28 41 -31 69 -142 4 -14 -6 -13 -77
7 -45 13 -114 26 -153 28 -39 3 -57 3 -41 0 72 -11 184 -38 232 -56 39 -14 54
-26 61 -47 l10 -27 -108 4 c-79 3 -129 0 -185 -13 -42 -9 -75 -18 -73 -20 2
-2 46 4 98 12 118 20 241 12 271 -18 26 -26 24 -43 -4 -35 -12 3 -47 8 -77 10
-30 2 -44 2 -30 -1 58 -10 128 -34 140 -48 11 -13 2 -15 -71 -15 -46 0 -115
-7 -153 -15 -65 -14 -196 -67 -196 -80 0 -3 17 3 38 14 96 49 255 76 358 60
38 -5 86 -12 106 -16 22 -3 52 -19 75 -38 l38 -34 -49 15 c-31 9 -88 13 -155
12 l-106 -1 115 -7 c137 -9 210 -31 210 -64 0 -7 -14 -10 -38 -8 -117 11 -365
-79 -462 -168 -25 -23 -30 -30 -12 -16 120 93 289 157 421 160 70 1 86 -2 89
-14 2 -11 -14 -21 -54 -33 -64 -20 -145 -70 -189 -118 l-30 -33 38 32 c21 18
55 43 75 56 35 22 143 66 161 66 5 0 12 -15 15 -33 5 -29 0 -38 -52 -95 -32
-34 -66 -77 -76 -94 l-17 -33 22 30 c35 46 125 135 137 135 5 0 14 -12 20 -28
13 -36 58 -89 92 -107 15 -8 50 -17 78 -21 l51 -6 -4 -82 -4 -81 11 82 11 83
66 -6 c36 -3 89 -1 116 5 58 11 61 10 91 -61 13 -29 23 -47 24 -40 0 7 -10 36
-21 63 -12 27 -20 51 -18 53 2 2 25 15 50 30 l47 27 48 -37 c27 -20 74 -59
105 -88 30 -28 11 -8 -42 46 l-97 96 28 12 c43 18 68 5 149 -79 l75 -76 -47
62 c-26 34 -63 75 -83 91 l-36 30 32 17 c37 19 69 11 134 -31 21 -14 36 -21
32 -16 -3 6 -26 23 -51 39 -25 15 -45 32 -45 37 0 5 24 6 53 3 33 -4 47 -3 37
3 -27 17 -3 20 46 5 58 -17 113 -69 143 -135 27 -60 26 -79 -8 -154 -33 -74
-60 -96 -116 -96 -50 0 -79 -20 -106 -71 -20 -40 -38 -139 -25 -139 4 0 18 7
31 16 28 18 45 12 45 -17 0 -29 21 -32 71 -10 58 27 96 27 104 1 7 -22 24 -21
75 5 14 7 45 18 69 25 65 17 101 58 101 113 0 51 24 89 124 194 l65 68 72 -70
c58 -57 70 -65 66 -45 -7 29 1 70 13 70 4 0 38 -18 74 -40 74 -45 76 -46 76
-25 0 22 13 19 69 -19 l51 -35 0 25 c0 31 6 30 34 -3 l23 -26 6 31 6 32 51
-30 c116 -69 137 -73 283 -66 154 9 261 27 358 62 55 20 73 23 90 14 11 -7 31
-9 42 -7 17 4 27 -2 42 -25 33 -52 50 -57 83 -25 37 35 60 34 93 -5 l27 -33
44 43 44 42 109 0 c130 0 129 12 -3 37 -83 15 -92 19 -92 39 0 12 -3 29 -6 37
-4 13 2 14 38 10 l43 -5 -70 43 c-80 49 -74 62 11 24 67 -30 166 -46 215 -36
l34 7 -42 7 c-61 10 -133 36 -166 59 -41 29 -25 34 31 10 67 -29 135 -43 172
-35 30 6 28 7 -37 28 -37 12 -77 26 -87 32 -15 8 -12 11 22 16 23 3 73 20 112
38 l70 32 -49 28 c-54 31 -71 49 -46 49 21 0 133 55 165 81 l25 21 -25 -7
c-14 -3 -59 -8 -100 -11 l-75 -5 57 24 c54 23 177 105 178 119 0 3 -12 10 -27
16 -16 5 -54 30 -87 55 l-58 46 37 15 c21 9 39 16 42 16 2 0 40 23 85 52 l80
51 -57 28 c-59 30 -145 88 -145 99 0 3 14 14 31 24 17 10 62 48 100 84 l70 65
-79 43 -79 44 73 75 c41 41 74 79 74 84 0 5 -36 12 -80 16 -44 4 -80 9 -80 11
0 2 29 42 64 88 81 107 90 122 72 129 -8 3 -46 9 -85 13 -39 3 -71 8 -71 10 0
2 9 18 20 36 11 18 20 35 20 38 0 4 -17 4 -37 2 l-37 -5 47 54 c25 29 60 78
76 110 l31 56 -53 -12 c-29 -7 -78 -15 -110 -19 l-58 -8 26 43 c20 30 24 44
15 49 -9 5 3 30 39 83 28 42 51 79 51 82 0 3 -33 5 -72 6 -40 1 -99 4 -130 8
l-58 6 31 45 c47 70 111 181 107 185 -6 6 -226 -40 -262 -54 -16 -6 -31 -10
-33 -7 -5 5 74 154 122 232 l32 50 -86 -4 c-47 -2 -120 -10 -161 -17 -41 -7
-76 -11 -78 -10 -2 2 4 20 13 40 8 21 13 40 11 42 -2 2 -25 -20 -51 -49 -50
-56 -40 -34 32 68 24 34 43 65 43 69 0 13 -139 -14 -255 -50 -11 -3 1 5 28 20
26 14 47 27 47 29 0 5 -55 -10 -70 -19 -5 -3 9 28 31 69 43 81 43 93 -3 49
-15 -15 -28 -22 -28 -17 0 28 33 131 47 147 23 24 -124 -27 -266 -94 -57 -27
-106 -49 -109 -49 -2 0 11 19 30 43 19 23 38 49 43 57 8 13 7 13 -11 0 -10 -8
-30 -23 -43 -35 -14 -12 -21 -14 -16 -5 7 13 95 125 144 184 15 18 14 19 -38
12 -46 -6 -89 -19 -162 -50 -16 -7 -16 -1 -2 69 8 42 13 81 11 86 -3 9 -219
-93 -274 -131 l-32 -21 -11 63 c-6 35 -13 82 -17 106 -4 23 -10 45 -14 47 -5
3 -49 -31 -99 -75 -63 -56 -91 -75 -91 -63 0 10 8 57 18 106 10 48 18 87 18
87 -1 0 -37 -26 -81 -57z m-386 -85 c-15 -29 -191 -210 -197 -203 -9 9 52 89
120 157 69 69 99 87 77 46z m335 -74 c-20 -30 -39 -53 -41 -50 -12 12 13 83
41 114 30 34 31 35 34 13 2 -15 -10 -44 -34 -77z m274 54 c1 -23 -2 -66 -9
-97 -11 -54 -75 -195 -107 -236 -9 -11 22 19 67 68 82 86 172 158 241 191 l35
17 -32 -25 c-31 -26 -118 -154 -110 -162 5 -6 108 105 145 158 27 37 60 63 68
55 3 -3 0 -35 -7 -71 -10 -60 -15 -70 -51 -99 -22 -18 -52 -42 -66 -55 l-27
-22 25 9 c14 5 83 43 155 84 71 42 131 74 134 72 7 -8 -167 -232 -198 -254
-40 -29 -39 -22 5 39 20 27 31 50 26 50 -24 0 -122 -133 -108 -147 3 -3 24 -1
47 5 56 14 39 -2 -60 -57 -54 -31 -71 -37 -66 -24 3 10 9 32 12 48 l5 30 -16
-22 c-10 -13 -35 -59 -56 -102 -44 -89 -104 -186 -121 -197 -7 -4 4 24 24 61
20 38 36 70 34 71 -1 1 -42 -55 -92 -126 -49 -71 -90 -128 -92 -127 -1 2 4 25
12 52 7 28 16 84 20 126 6 70 9 79 41 110 l35 34 -15 -41 c-8 -23 -23 -59 -35
-82 -12 -23 -21 -45 -20 -49 0 -4 24 39 53 97 64 126 113 184 218 257 83 58
110 85 60 59 -42 -22 -55 -20 -47 4 9 29 -1 25 -85 -29 -41 -27 -76 -48 -78
-46 -5 4 38 108 61 145 l21 35 -22 -19 c-12 -10 -31 -40 -43 -66 -12 -27 -42
-65 -70 -89 l-49 -42 0 53 c0 29 4 69 10 87 5 19 8 36 6 38 -2 2 -30 -14 -61
-36 -68 -48 -84 -51 -60 -14 10 14 26 42 37 62 l20 36 -31 -35 c-16 -19 -40
-53 -52 -75 -12 -22 -41 -55 -65 -72 l-43 -33 24 71 c13 38 36 84 50 101 23
28 128 122 250 225 28 24 50 43 50 43 0 0 1 -19 3 -42z m-838 -112 c-12 -60
-16 -65 -34 -40 -10 13 -21 5 -75 -60 -34 -42 -64 -76 -67 -76 -8 0 25 57 62
106 43 58 116 135 122 130 2 -3 -1 -30 -8 -60z m453 -33 c-7 -49 -17 -108 -23
-133 -18 -70 -74 -182 -109 -214 -17 -17 -31 -28 -31 -25 0 3 20 65 45 139 25
74 45 137 45 140 -1 3 -10 -13 -22 -35 -11 -22 -42 -76 -68 -120 -27 -44 -67
-123 -89 -175 -41 -93 -69 -133 -124 -172 l-27 -19 10 27 c6 15 13 31 17 37 3
5 8 39 10 76 2 36 8 92 12 124 5 40 5 55 -3 47 -21 -21 -24 -9 -9 38 9 26 28
65 43 87 57 87 85 124 92 125 4 0 -2 -25 -13 -57 -10 -31 -19 -77 -19 -102 l1
-46 42 80 c30 59 66 104 133 173 50 50 93 92 95 92 3 0 -1 -39 -8 -87z m-269
0 c-9 -53 -34 -107 -83 -183 l-43 -65 4 43 c2 23 2 42 1 42 -2 0 -21 -36 -42
-79 -41 -81 -152 -223 -159 -203 -2 6 4 46 12 88 9 43 15 79 12 81 -2 2 -22
-43 -46 -99 -46 -113 -56 -130 -45 -80 3 17 4 32 1 32 -4 0 -34 -14 -68 -31
l-61 -31 6 34 c5 26 0 20 -23 -27 -27 -55 -84 -125 -94 -114 -2 2 14 51 36
109 22 58 49 141 59 185 11 44 23 89 26 100 3 13 2 17 -5 10 -5 -5 -24 -56
-41 -111 -37 -121 -90 -248 -91 -217 0 12 23 94 51 183 28 89 49 164 46 166
-6 6 -84 -162 -123 -265 l-32 -84 -8 99 -9 99 -6 -175 c-3 -96 -10 -200 -15
-230 l-8 -55 -7 45 c-4 25 -8 90 -8 145 -2 163 -30 163 -32 0 -1 -66 -3 -74
-9 -45 -5 19 -12 66 -15 103 -8 80 -9 80 -88 -26 -50 -67 -52 -69 -55 -42 -2
18 10 54 32 99 40 77 130 199 140 189 3 -4 6 -21 6 -39 0 -81 39 -17 70 116
l14 55 16 -65 17 -65 30 60 c36 69 105 165 157 215 l36 34 -20 -58 c-28 -83
-25 -88 15 -26 19 30 35 48 35 38 0 -9 -18 -76 -40 -149 -22 -73 -40 -147 -40
-164 l1 -30 24 39 24 40 3 -60 3 -59 38 90 c21 50 66 135 101 190 l64 99 8
-39 c6 -35 -4 -152 -22 -250 -3 -16 12 21 35 84 22 62 48 123 57 135 28 34
148 153 157 155 4 0 5 -16 1 -36z m-721 -135 c-10 -17 -24 -33 -31 -36 -20 -6
-13 29 16 77 26 45 27 45 30 18 2 -15 -5 -42 -15 -59z m2084 40 c-3 -7 -16
-43 -28 -80 l-23 -68 -80 -25 c-45 -14 -113 -42 -153 -63 l-72 -39 20 39 c11
21 17 38 13 38 -14 0 -65 -43 -94 -80 l-31 -39 43 4 c24 2 73 17 108 34 74 33
230 84 237 77 3 -3 -8 -22 -25 -43 -16 -21 -53 -78 -82 -126 -33 -54 -64 -94
-81 -103 l-28 -14 26 58 c14 31 35 69 45 85 11 15 17 27 14 27 -3 0 -56 -33
-118 -74 -62 -41 -115 -73 -117 -71 -2 3 3 15 11 27 7 13 20 36 27 53 11 25 2
20 -53 -33 -58 -56 -130 -101 -143 -89 -2 3 24 30 59 60 117 103 123 109 108
101 -8 -5 -52 -34 -98 -66 -76 -53 -152 -98 -167 -98 -14 0 74 146 112 185 22
24 72 59 110 78 37 19 104 61 148 93 79 58 275 164 303 164 7 0 11 -6 9 -12z
m-891 -174 c-22 -110 -49 -194 -61 -194 -3 0 -3 47 1 105 4 58 5 105 2 105 -3
0 -30 -54 -58 -120 -29 -66 -68 -137 -86 -158 -38 -42 -42 -32 -19 44 22 74
18 84 -15 34 -43 -63 -130 -207 -130 -214 0 -11 48 13 132 68 77 50 218 119
226 111 6 -6 -51 -180 -76 -235 -15 -30 -50 -79 -79 -107 -30 -29 -45 -50 -36
-46 27 10 95 53 121 76 17 16 25 18 34 9 8 -8 23 0 60 33 57 51 165 99 282
124 l82 18 -58 -111 c-55 -104 -87 -151 -95 -143 -5 6 29 101 47 127 38 57 28
50 -77 -52 -127 -124 -191 -161 -270 -156 l-48 3 37 17 c32 14 163 107 208
146 26 24 -82 -39 -146 -84 l-61 -43 19 39 c29 58 18 67 -32 25 -82 -68 -120
-79 -163 -45 l-25 20 52 53 c51 51 144 192 133 203 -3 3 -39 -36 -80 -88 -76
-95 -104 -124 -112 -116 -5 4 12 64 30 113 6 14 -3 10 -31 -15 -63 -57 -84
-74 -84 -65 0 4 28 35 63 68 l62 59 -46 -25 c-36 -21 -145 -67 -157 -67 -1 0
4 13 13 30 l15 29 -77 -41 c-43 -23 -93 -52 -111 -66 l-34 -24 18 33 c9 19 39
58 65 87 43 48 58 72 44 72 -2 0 -33 -20 -68 -45 -64 -44 -65 -47 -108 -153
-23 -59 -53 -129 -66 -157 l-23 -50 4 65 c3 36 8 74 12 85 7 18 6 18 -9 7 -27
-22 -56 -131 -67 -246 -11 -113 -8 -139 10 -90 25 64 63 144 70 144 4 0 10
-26 14 -57 4 -31 12 -76 18 -100 l11 -44 37 58 c108 170 280 225 377 121 57
-61 85 -188 63 -291 -21 -104 -60 -52 -60 83 0 91 -22 132 -77 145 -34 8 -40
13 -33 25 16 25 11 32 -16 26 -40 -10 -83 -47 -110 -92 -13 -22 -24 -44 -24
-47 0 -4 29 -7 65 -7 36 0 65 -3 65 -6 0 -3 -10 -14 -22 -24 l-22 -18 40 -6
c62 -11 74 -23 33 -34 l-34 -9 43 -22 c24 -12 70 -47 102 -76 33 -30 83 -71
111 -92 29 -20 48 -38 43 -39 -5 -1 -40 -6 -79 -9 l-70 -7 47 -18 c52 -19 145
-83 130 -88 -6 -2 -29 6 -52 18 -70 36 -55 16 37 -48 49 -34 111 -84 138 -112
l49 -50 -49 20 c-92 36 -247 91 -250 88 -2 -2 64 -37 147 -78 83 -41 169 -92
192 -112 l41 -36 -70 34 c-38 19 -86 37 -105 40 -25 4 1 -14 88 -59 147 -77
167 -93 81 -67 -35 11 -66 20 -68 20 -2 0 17 -19 43 -41 53 -47 54 -58 4 -34
l-33 16 26 -23 c14 -13 59 -50 99 -83 39 -32 68 -61 63 -62 -5 -2 -53 15 -108
37 -77 31 -111 40 -158 40 -72 0 -69 -6 10 -26 32 -9 87 -32 123 -53 36 -21
81 -46 100 -55 l35 -17 -28 25 c-47 43 -4 32 102 -26 100 -56 212 -156 279
-251 l33 -47 -78 35 c-91 42 -142 71 -238 135 -95 64 -255 142 -255 125 0 -8
155 -122 240 -178 47 -30 143 -83 214 -118 119 -59 138 -72 223 -157 80 -79
89 -90 59 -78 -55 23 -165 90 -238 145 -38 28 -68 46 -68 42 0 -5 16 -28 35
-51 19 -23 35 -44 35 -47 0 -6 -40 19 -87 54 -18 13 -33 20 -33 16 0 -19 136
-136 244 -212 74 -51 63 -52 -31 -2 -40 21 -73 36 -73 32 0 -3 16 -26 35 -50
19 -24 35 -46 35 -48 0 -9 -57 37 -109 87 -30 28 -56 49 -58 46 -9 -9 31 -72
71 -114 38 -40 39 -42 14 -33 -37 14 -71 35 -145 93 -61 47 -62 47 -51 17 6
-16 33 -55 62 -86 l51 -57 -44 25 c-25 13 -73 50 -108 82 l-63 59 14 -44 c7
-24 29 -70 49 -101 20 -31 34 -57 31 -57 -13 0 -130 120 -172 175 -34 47 -43
54 -38 33 8 -34 3 -34 -37 -6 -24 17 -17 5 25 -42 62 -70 74 -94 31 -61 -81
62 -83 63 -76 45 5 -14 3 -15 -13 -6 -22 12 -92 85 -119 122 l-17 25 6 -30 c4
-16 20 -59 37 -94 16 -35 28 -66 26 -68 -3 -2 -30 24 -61 57 -62 68 -71 60
-26 -24 39 -75 13 -62 -65 34 -31 38 -60 70 -62 70 -3 0 -3 -16 0 -36 l6 -36
-37 46 c-20 25 -38 42 -40 37 -2 -5 1 -33 7 -63 5 -29 7 -55 4 -58 -3 -3 -7 0
-10 6 -8 23 -76 131 -103 164 l-29 35 -10 -29 -11 -28 -49 45 c-27 25 -76 59
-109 76 -100 50 -96 40 23 -59 47 -39 90 -81 96 -93 10 -19 10 -20 -2 -11 -73
59 -268 202 -280 206 -27 10 -3 17 89 28 90 10 93 10 115 -13 12 -13 15 -14 7
-4 -15 19 -13 20 52 15 48 -4 86 -15 135 -39 37 -18 73 -35 78 -38 6 -2 1 6
-9 18 -11 11 -16 24 -13 27 7 8 141 -21 215 -47 30 -10 56 -18 58 -17 1 2 -24
43 -56 93 -33 49 -58 91 -56 92 1 1 38 -6 82 -17 99 -24 175 -57 239 -105 79
-60 81 -61 60 -36 -89 103 -306 204 -485 224 l-45 6 41 -37 c23 -20 58 -58 79
-84 39 -50 34 -59 -22 -37 -54 21 -219 48 -338 55 -87 6 -112 10 -90 15 17 5
48 13 70 18 34 9 27 10 -40 5 -98 -6 -248 -38 -332 -70 -70 -26 -87 -17 -20
11 141 58 200 78 357 121 96 26 195 53 220 60 l45 13 -56 0 c-113 2 -317 -51
-492 -125 -72 -31 -82 -33 -96 -20 -13 14 -6 19 65 52 113 51 211 83 359 114
72 16 119 29 106 29 -42 2 -270 -49 -354 -78 -45 -16 -111 -43 -146 -60 -53
-25 -68 -28 -80 -18 -14 10 -14 10 -4 -4 11 -13 8 -19 -18 -38 -38 -28 -32
-38 10 -17 37 19 41 20 41 3 0 -8 -19 -20 -42 -26 -24 -7 -54 -20 -68 -28
l-25 -14 30 5 c17 3 41 8 55 12 52 14 -4 -24 -117 -80 -61 -30 -147 -77 -190
-103 -69 -43 -126 -73 -138 -73 -2 0 3 16 11 35 21 52 18 89 -13 125 -41 50
-104 73 -200 74 -95 1 -125 -14 -159 -82 -20 -38 -22 -40 -29 -19 -4 12 -10
92 -14 177 -7 149 -9 158 -40 216 -33 62 -90 138 -98 131 -2 -3 19 -48 48
-102 l52 -97 -47 36 c-25 19 -78 52 -117 72 -77 41 -87 53 -71 88 7 16 6 27
-5 41 -9 13 -12 32 -9 53 4 29 1 34 -32 51 l-36 18 35 18 c35 18 79 54 79 65
0 3 -22 12 -50 19 -53 14 -67 31 -25 31 14 0 47 9 75 19 l50 19 0 -70 c0 -38
5 -78 11 -89 6 -11 31 -29 57 -40 91 -39 122 -91 139 -232 l7 -62 7 45 c33
205 -43 593 -130 663 -8 7 -6 -1 6 -18 22 -32 56 -125 68 -185 5 -30 2 -27
-20 20 -25 52 -70 110 -86 110 -4 0 -13 -15 -19 -34 -6 -19 -17 -40 -25 -46
-19 -15 -30 12 -40 96 -11 86 -22 98 -30 32 -5 -39 -2 -72 8 -107 8 -28 13
-51 11 -51 -12 0 -56 98 -73 164 -11 43 -26 85 -32 93 -9 11 -7 19 10 36 26
29 27 37 1 30 -11 -3 -20 -3 -20 0 0 19 34 95 51 113 l20 21 -23 7 c-13 3 -34
6 -48 6 -24 0 -24 1 10 28 70 55 95 81 84 89 -13 9 -54 74 -54 86 0 4 9 7 21
7 l20 0 -20 29 c-12 16 -21 32 -21 36 0 4 27 5 60 3 44 -3 66 -10 83 -26 32
-30 37 -28 31 11 -4 26 1 20 25 -28 30 -62 43 -52 16 12 l-16 37 27 -24 c24
-23 26 -23 21 -5 -9 29 -38 247 -34 251 6 6 49 -57 100 -146 27 -47 46 -74 43
-60 -3 14 -13 81 -21 150 -23 186 -26 199 -35 175 -5 -11 -9 -40 -10 -65 -2
-38 -3 -41 -10 -20 -21 67 -4 197 39 294 l18 41 32 -99 c17 -54 34 -119 38
-145 l6 -46 -42 53 c-24 28 -44 52 -46 52 -6 0 33 -120 71 -215 l39 -97 7 93
c4 52 12 124 17 160 12 75 46 162 54 139 3 -8 19 -55 36 -105 30 -89 34 -91
45 -25 10 58 49 181 55 175 3 -4 13 -36 22 -73 14 -64 14 -69 -5 -112 -11 -25
-34 -83 -51 -129 l-32 -83 -17 41 c-9 23 -25 74 -36 113 -11 39 -22 74 -26 77
-19 17 10 -184 49 -339 47 -185 99 -360 107 -360 3 0 17 51 33 113 33 135 69
255 73 242 2 -6 8 -30 14 -54 18 -69 24 -39 10 48 -11 63 -11 97 -1 166 7 48
10 89 8 92 -3 2 -15 -38 -27 -89 -19 -78 -96 -326 -117 -378 -3 -9 -15 13 -29
55 -28 84 -31 181 -8 269 23 90 194 429 209 414 2 -2 -3 -48 -11 -102 -18
-118 -13 -143 11 -61 16 54 19 57 26 35 11 -33 59 -317 59 -347 0 -12 4 -23 8
-23 4 0 39 47 77 105 l70 105 3 -57 c2 -30 -2 -78 -8 -106 -6 -27 -9 -52 -6
-54 2 -2 14 13 27 34 l24 38 6 -70 c3 -38 6 -64 7 -58 1 7 25 75 53 150 54
146 109 269 155 343 26 42 26 44 4 25 -12 -11 -40 -42 -61 -68 -45 -57 -50
-48 -13 26 45 88 156 201 266 272 l28 17 -16 -54 c-47 -162 -56 -190 -59 -186
-2 2 2 28 10 57 30 116 -47 -20 -136 -239 -23 -58 -46 -109 -51 -115 -4 -5 -5
20 -2 55 4 42 3 61 -3 55 -23 -24 -55 -122 -63 -198 -18 -153 -10 -175 28 -79
26 68 91 184 128 230 20 24 22 31 9 26 -16 -6 -16 -5 -1 23 8 17 21 33 28 36
7 3 65 42 128 87 l115 82 3 -51 c2 -28 5 -51 8 -51 32 0 127 89 179 168 47 71
21 57 -60 -33 -43 -47 -80 -83 -82 -81 -2 2 4 36 13 76 16 66 24 79 74 128 46
45 359 265 368 257 1 -1 -9 -56 -22 -121z m-1406 38 c0 -15 5 -34 10 -42 8
-12 10 -10 10 9 0 20 2 21 15 11 8 -7 15 -19 15 -26 0 -15 -76 -184 -83 -184
-3 0 -10 29 -17 65 -11 58 -10 71 9 135 21 70 41 85 41 32z m132 -7 c3 -30 -2
-40 -40 -77 l-44 -43 38 78 c21 42 39 77 40 77 1 0 4 -16 6 -35z m1528 30 c0
-2 -33 -30 -72 -61 -40 -31 -97 -80 -125 -108 -29 -28 -53 -47 -53 -43 0 15
49 83 81 114 50 47 169 117 169 98z m817 -127 c-14 -24 -44 -79 -67 -123 -70
-130 -127 -213 -159 -229 -37 -20 -41 -20 -41 0 0 8 23 40 51 70 29 30 48 54
44 54 -16 0 -83 -57 -202 -172 -67 -65 -124 -118 -127 -118 -6 0 8 40 25 72
11 20 10 20 -18 3 -38 -22 -124 -100 -95 -86 26 14 28 5 4 -30 -73 -108 -207
-228 -290 -259 -30 -12 -56 -19 -58 -17 -2 1 24 23 57 47 61 44 123 109 114
119 -3 2 -20 -9 -38 -26 -59 -56 -158 -123 -199 -134 -48 -13 -126 3 -161 32
-22 19 -21 19 58 13 64 -5 84 -3 100 10 19 15 18 15 -22 16 -45 0 -65 15 -34
25 33 10 144 86 197 134 59 54 132 92 264 136 97 33 165 63 158 70 -4 4 -37
-3 -191 -39 -9 -2 -15 0 -12 4 3 4 -11 3 -30 -3 -43 -13 -54 -4 -30 23 28 31
223 126 307 150 40 11 89 28 108 37 34 16 34 16 11 22 -22 6 -14 14 77 76 56
37 100 70 98 73 -2 2 -15 -2 -27 -9 -21 -11 -114 -39 -132 -39 -24 0 32 51 76
71 39 17 176 63 205 68 2 1 -7 -18 -21 -41z m-2641 -48 c-19 -43 -21 -22 -3
34 8 28 13 35 15 21 2 -12 -4 -36 -12 -55z m51 -75 c-3 -22 -18 -74 -33 -115
l-29 -75 -3 60 c-3 62 8 123 35 184 l15 36 10 -25 c5 -14 7 -43 5 -65z m2853
-4 c-26 -50 -94 -88 -220 -124 -69 -20 -133 -39 -144 -43 -21 -8 41 79 77 108
38 30 190 74 270 77 24 1 26 -1 17 -18z m-2246 -64 c-7 -29 -36 -101 -63 -158
-27 -58 -53 -118 -58 -135 -7 -27 -8 -25 -13 23 l-5 51 -70 -93 c-44 -59 -72
-89 -77 -82 -4 7 -8 36 -8 65 0 70 26 120 109 206 53 55 188 176 197 176 1 0
-4 -24 -12 -53z m1496 -8 c-46 -54 -86 -87 -138 -113 l-33 -17 14 27 c11 21
177 151 195 154 2 0 -15 -23 -38 -51z m681 -47 c-21 -40 -103 -143 -109 -138
-3 4 0 12 6 18 18 18 15 27 -7 21 -14 -3 -19 0 -18 13 2 15 -5 18 -43 16 l-45
-2 24 17 c19 15 167 70 194 72 4 1 3 -7 -2 -17z m198 -125 c-25 -23 -75 -68
-110 -100 -60 -54 -52 -61 15 -14 32 22 29 14 -10 -40 -13 -17 -24 -34 -24
-37 0 -3 64 -6 143 -6 l142 -1 -25 -20 c-32 -27 -122 -72 -218 -110 -43 -17
-82 -33 -88 -35 -7 -3 -1 16 12 43 13 26 24 56 24 66 0 9 6 17 13 17 8 1 7 4
-3 9 -29 17 -130 22 -186 11 -30 -7 -57 -10 -59 -8 -2 2 27 27 64 56 101 77
103 86 10 43 -46 -21 -86 -37 -88 -36 -1 2 9 19 23 38 42 56 147 102 346 156
63 17 66 11 19 -32z m-351 9 c-10 -7 -16 -15 -13 -18 10 -9 -72 -129 -136
-200 -45 -49 -78 -76 -102 -84 l-35 -10 49 44 c27 24 54 53 60 64 10 18 9 18
-11 8 -32 -17 -33 -8 -5 30 33 45 31 50 -6 14 l-31 -29 27 53 c27 55 26 84 -2
47 -8 -11 -19 -19 -24 -17 -6 1 -8 -2 -4 -8 3 -5 1 -10 -4 -10 -6 0 -11 -5
-11 -11 0 -5 -18 -36 -40 -68 -21 -32 -37 -61 -34 -64 7 -7 -75 -74 -132 -108
-60 -35 -55 -36 39 -4 40 13 134 35 207 49 74 14 164 32 200 40 77 18 210 31
210 22 0 -4 -17 -14 -37 -22 -41 -17 -217 -122 -273 -163 l-34 -26 27 48 c16
26 27 52 25 57 -2 6 -29 -8 -61 -29 -59 -40 -147 -76 -169 -69 -20 7 62 56
130 79 35 12 62 23 59 25 -10 10 -123 -34 -226 -87 -62 -33 -116 -57 -118 -55
-3 3 5 21 17 42 21 33 21 35 4 26 -10 -6 -30 -22 -44 -37 -37 -39 -274 -185
-327 -201 -46 -14 -76 -11 -101 9 -10 8 -6 13 17 23 41 17 41 38 1 29 -29 -6
-45 11 -17 19 114 31 217 77 217 97 0 4 -41 -6 -91 -22 -115 -37 -169 -45
-199 -29 -22 12 -18 15 62 41 47 15 117 43 154 62 38 19 103 42 144 51 41 10
93 25 115 35 48 21 170 125 211 178 30 41 29 40 -59 -31 -67 -54 -142 -94
-210 -112 l-47 -12 21 38 c33 58 275 238 354 262 67 21 194 46 240 47 27 0 28
-1 13 -13z m-1488 -54 c0 -16 -81 -122 -101 -133 -19 -10 -20 -8 -14 11 7 21
6 21 -44 -4 -28 -14 -66 -40 -86 -57 -42 -37 -56 -32 -27 8 33 46 62 69 162
127 98 57 110 62 110 48z m594 -54 c-46 -78 -103 -153 -134 -178 -67 -53 -180
-79 -194 -45 -4 11 2 15 23 15 69 0 229 110 288 198 16 23 30 31 17 10z
m-2206 -95 c11 -10 23 -37 26 -60 l6 -43 -32 20 c-18 11 -43 20 -55 20 -30 0
-103 -71 -104 -101 0 -22 -1 -23 -9 -4 -17 41 19 165 52 178 30 12 97 6 116
-10z m1669 -24 c55 -17 128 -108 164 -205 19 -48 36 -79 40 -73 16 26 141 -14
204 -66 l30 -24 -30 0 c-16 0 -48 6 -70 14 -22 8 -42 15 -44 15 -3 0 22 -16
55 -36 57 -34 107 -74 101 -80 -2 -2 -56 5 -121 16 -64 11 -119 20 -122 20
-11 0 -1 -21 31 -63 l35 -46 -35 14 c-19 8 -45 15 -59 15 -24 0 -24 1 -24 98
0 226 -100 363 -266 362 -34 -1 -78 -7 -98 -14 -21 -8 -38 -10 -38 -6 0 18 63
60 98 65 20 4 42 8 47 10 12 4 59 -3 102 -16z m1896 -60 c-25 -43 -55 -61 -98
-57 l-36 3 73 42 c40 22 74 41 76 42 2 1 -5 -13 -15 -30z m-338 -50 c-22 -22
-86 -76 -141 -120 -98 -76 -155 -109 -189 -109 -27 0 21 57 68 81 22 12 96 59
164 105 68 46 126 84 130 84 4 0 -11 -18 -32 -41z m284 -61 c-24 -45 -98 -134
-165 -199 -63 -59 -79 -69 -178 -105 -101 -36 -106 -39 -75 -45 l34 -5 -43
-13 c-24 -7 -58 -11 -75 -9 l-32 3 36 35 c19 19 51 48 70 63 47 38 6 17 -58
-30 -28 -21 -86 -63 -128 -93 -43 -30 -87 -63 -99 -73 -21 -17 -20 -17 9 -5
17 7 44 21 61 33 26 17 44 19 110 17 92 -4 88 -8 -51 -58 l-90 -32 40 -10 c22
-6 58 -15 80 -21 22 -6 87 -13 143 -16 115 -7 248 -40 220 -56 -19 -10 -223
-54 -313 -66 l-60 -9 53 -29 c67 -37 217 -136 257 -169 16 -14 26 -28 22 -32
-4 -4 -73 -7 -154 -8 -129 -1 -158 2 -223 23 -41 12 -92 32 -113 43 -21 10
-43 18 -48 16 -17 -6 76 -128 131 -173 30 -24 92 -66 139 -92 79 -44 84 -48
56 -52 -43 -5 -159 17 -240 46 -69 25 -262 119 -299 146 -17 13 -15 15 34 21
54 7 139 32 153 45 4 5 -22 33 -58 64 -37 32 -65 57 -62 57 2 0 22 -7 43 -16
22 -9 34 -11 28 -4 -6 6 -37 22 -69 35 l-58 23 89 -4 c49 -2 110 -6 136 -10
27 -3 54 -1 65 5 15 9 11 11 -22 11 -36 1 -33 3 33 19 90 22 100 31 36 31 -67
0 -85 14 -37 28 21 6 60 26 88 43 l50 32 -90 28 c-50 15 -99 28 -110 29 -19 1
-19 1 -1 11 24 15 3 30 -34 23 -14 -2 -32 0 -40 6 -13 9 -11 13 10 30 l25 19
-42 -11 c-32 -8 -51 -7 -84 4 l-43 14 77 32 c66 28 122 45 312 94 33 8 36 11
21 20 -16 9 -16 11 -2 27 15 17 13 18 -41 20 -32 1 -73 -3 -90 -8 -39 -11 -41
-6 -10 32 40 49 147 54 296 13 30 -8 58 -19 64 -25 12 -12 60 10 100 47 43 41
32 44 -25 7 -28 -19 -54 -32 -58 -30 -4 2 -20 10 -36 16 l-29 11 43 13 c47 14
152 74 152 87 0 4 -33 -8 -73 -26 -61 -27 -89 -34 -162 -38 -100 -5 -99 -1 15
56 81 41 174 72 288 96 117 25 115 25 101 -2z m150 -84 c-13 -14 -45 -42 -71
-62 -26 -20 -46 -38 -43 -40 2 -3 29 14 60 37 30 23 55 39 55 36 0 -16 -76
-86 -105 -95 -30 -10 -81 -8 -92 4 -3 3 18 28 47 56 l53 51 -38 -15 c-21 -9
-39 -15 -41 -13 -1 1 5 13 15 26 14 19 32 25 82 31 111 13 106 14 78 -16z
m-805 -26 c-60 -98 -165 -201 -237 -233 -86 -38 -278 -65 -348 -50 -34 8 -34
8 23 21 60 14 132 46 143 64 3 6 -17 1 -45 -10 -28 -11 -54 -20 -57 -20 -17 0
50 56 113 96 94 58 166 87 299 117 61 14 111 26 113 26 2 1 0 -5 -4 -11z m89
-160 c-17 -8 -29 -8 -45 0 -20 9 -18 11 22 11 40 0 42 -2 23 -11z m648 -17
c-40 -56 -107 -96 -310 -188 -106 -48 -157 -66 -185 -65 -49 1 -69 18 -33 27
37 10 53 31 32 42 -13 8 -4 21 54 75 70 67 157 126 168 114 3 -3 0 -12 -7 -21
-16 -19 -11 -19 34 0 41 17 173 43 229 44 l38 1 -20 -29z m-1367 -62 c-22 -17
-39 -36 -39 -41 0 -35 113 -68 235 -68 89 0 171 -26 307 -93 104 -53 123 -66
105 -71 -30 -10 -178 17 -381 70 -186 48 -197 52 -251 93 -27 20 -70 37 -70
27 0 -1 56 -59 125 -129 69 -71 125 -133 125 -139 0 -12 -67 26 -173 98 -85
59 -87 46 -5 -36 69 -67 207 -149 298 -175 24 -7 23 -5 -10 30 l-35 38 42 -23
c23 -13 70 -46 104 -74 l62 -51 -44 -8 c-24 -5 -117 -9 -207 -10 -137 -2 -160
-4 -145 -15 27 -20 121 -65 99 -47 -19 14 -18 15 20 15 34 0 46 -6 85 -47 25
-27 63 -70 84 -98 86 -111 157 -172 290 -248 l50 -28 -80 4 c-88 5 -245 43
-245 59 0 10 16 9 130 -8 41 -6 37 -3 -56 44 -104 53 -170 104 -225 174 -38
47 -35 46 79 -24 34 -21 65 -38 69 -38 13 0 -81 91 -116 112 -27 17 -150 52
-158 45 -1 -1 19 -29 43 -62 52 -69 98 -158 92 -177 -5 -14 -137 108 -191 176
l-31 39 27 -5 c15 -3 27 -4 27 -2 0 2 -31 55 -69 118 l-70 115 46 -20 c49 -21
170 -42 186 -32 5 3 -31 20 -81 38 -110 40 -170 72 -191 104 -14 21 -9 20 38
-12 76 -53 81 -46 14 18 l-58 56 35 -6 35 -6 -30 23 c-57 44 -108 93 -167 161
-106 124 -57 111 65 -16 69 -72 78 -78 72 -52 -4 17 -24 68 -46 114 -21 46
-39 87 -39 90 1 13 34 -38 71 -111 22 -43 41 -78 43 -78 6 0 -40 113 -65 163
l-19 37 72 1 c40 1 84 5 98 9 56 18 64 11 24 -21z m1507 -31 c-88 -127 -185
-171 -331 -150 l-55 8 44 23 c40 21 49 22 84 11 30 -9 51 -9 88 0 66 16 71 30
10 30 -73 0 -70 14 8 34 94 24 110 38 36 29 l-60 -6 16 24 c17 25 53 35 142
38 l48 1 -30 -42z m-331 -175 c0 -5 -11 -15 -23 -24 -20 -15 -26 -14 -72 7
l-50 23 73 0 c39 1 72 -2 72 -6z m-995 -27 c58 -14 211 -38 345 -54 l65 -8
-32 -17 c-63 -34 -275 -39 -354 -8 -32 12 -96 66 -110 93 -9 17 -8 19 8 14 10
-3 45 -12 78 -20z m1154 -2 l94 -7 -54 -49 c-62 -55 -130 -94 -209 -118 l-55
-17 45 -23 c37 -19 64 -25 148 -28 68 -3 107 -1 115 7 8 8 -1 11 -33 12 -89 1
-88 18 0 20 83 1 84 2 31 9 -66 10 -80 22 -51 43 21 14 27 14 72 -4 27 -10 61
-27 75 -36 23 -15 24 -18 9 -21 -10 -2 -15 -10 -12 -18 7 -18 -43 -55 -118
-90 -51 -23 -67 -26 -135 -22 -51 3 -90 12 -118 27 -42 21 -60 40 -26 27 22
-9 107 4 96 14 -4 5 -55 18 -113 31 -58 13 -107 25 -110 27 -3 2 3 9 13 16 23
18 22 23 -10 29 -16 3 -46 13 -67 22 l-39 17 59 25 c49 21 76 26 156 27 53 1
100 5 104 9 4 4 -7 7 -24 7 -18 0 -32 3 -32 7 0 16 65 73 79 69 9 -3 58 -8
110 -12z m201 13 c0 -2 -16 -19 -37 -38 -37 -35 -37 -23 0 19 18 19 37 29 37
19z m-3930 -102 c0 -9 -9 -15 -22 -15 -22 1 -23 1 -4 15 25 19 26 19 26 0z
m164 -112 c-25 -84 -15 -135 31 -146 18 -4 18 -5 -2 -6 -37 -2 -57 40 -50 103
5 48 21 96 31 96 2 0 -2 -21 -10 -47z m65 3 c15 -18 3 -46 -20 -46 -22 0 -34
22 -25 45 7 19 30 19 45 1z m68 -48 c-3 -8 -6 -5 -6 6 -1 11 2 17 5 13 3 -3 4
-12 1 -19z m3254 -102 c19 -8 63 -20 99 -26 46 -9 97 -30 174 -73 l109 -61
-44 -19 c-75 -33 -212 -77 -238 -77 -24 -1 -22 -4 27 -50 33 -31 47 -50 37
-50 -9 0 -61 9 -116 21 -56 11 -103 18 -106 15 -15 -14 100 -50 197 -61 58 -7
121 -20 140 -28 l35 -15 -26 -11 c-89 -33 -241 -45 -315 -23 -33 10 -118 61
-112 67 2 2 37 -5 78 -15 41 -11 93 -20 115 -19 33 0 25 4 -50 24 -49 13 -110
30 -135 38 -37 12 -40 15 -18 16 33 1 48 21 16 22 -13 0 -78 6 -145 12 -68 7
-123 12 -123 11 0 -1 48 -28 107 -59 104 -55 154 -85 141 -85 -3 0 -42 -7 -85
-15 -69 -13 -289 -20 -238 -8 39 10 46 23 27 51 -16 25 -16 26 3 19 26 -11
105 -21 105 -14 0 3 -31 15 -69 26 -70 21 -106 48 -151 111 l-21 29 43 -16
c57 -21 267 -24 291 -4 13 10 29 11 80 2 67 -12 181 -2 258 20 45 14 51 29 12
30 -18 1 1 11 57 29 84 27 85 27 45 32 -26 3 -55 -1 -82 -13 -23 -10 -68 -23
-99 -28 -63 -12 -205 -13 -243 -2 -21 5 -15 9 35 25 85 27 48 32 -41 5 -58
-17 -79 -19 -87 -11 -9 9 -7 12 7 12 17 0 18 2 5 10 -8 5 -24 10 -36 10 -23 0
-119 58 -111 67 4 3 27 0 53 -6 62 -16 555 -50 544 -38 -9 9 -231 37 -353 44
-126 7 -135 16 -26 26 37 3 97 11 134 18 58 10 66 14 62 30 -6 23 -8 22 34 5z
m-611 -275 c49 -52 87 -97 85 -99 -20 -20 -225 183 -225 223 0 15 60 -38 140
-124z m-2767 -57 c35 -26 47 -40 42 -52 -3 -9 -3 -13 1 -9 8 7 54 -55 54 -72
0 -17 -7 -14 -65 29 -30 22 -55 47 -55 55 0 8 -4 15 -9 15 -19 0 -71 52 -71
70 0 16 4 18 28 9 15 -5 49 -26 75 -45z m2701 -146 c39 -6 77 -18 84 -25 56
-56 206 -132 286 -144 33 -6 69 -18 80 -27 17 -16 15 -17 -45 -22 l-64 -5 55
-18 c30 -9 82 -28 115 -42 48 -20 54 -25 32 -25 -16 0 -37 5 -48 10 -22 12
-24 7 -8 -22 6 -11 9 -22 6 -24 -2 -3 -50 13 -106 35 -55 21 -101 35 -101 31
0 -13 118 -129 153 -150 50 -31 7 -24 -60 10 -42 21 -79 51 -117 95 -52 59
-89 85 -103 71 -6 -6 58 -86 132 -165 l50 -54 -44 24 c-24 13 -64 42 -89 64
-45 40 -245 266 -239 271 1 2 26 -8 54 -22 53 -27 173 -45 173 -27 0 5 -24 15
-52 22 -29 6 -76 24 -103 40 -55 31 -162 126 -131 117 10 -3 50 -11 90 -18z
m644 -5 c2 -9 -7 -13 -29 -13 l-33 0 29 -30 c36 -38 82 -53 150 -48 62 3 78
-14 21 -23 -20 -3 -39 -9 -43 -13 -8 -8 44 -52 90 -77 22 -12 26 -18 17 -24
-23 -14 -206 -18 -257 -6 -55 14 -117 51 -133 80 -8 15 2 12 47 -15 75 -45
124 -57 192 -49 l56 7 -73 19 c-82 21 -165 62 -231 114 -47 37 -44 40 29 36
31 -1 33 0 15 10 -17 11 -13 14 40 30 68 19 107 20 113 2z m-253 -103 c14 -27
25 -52 25 -55 0 -6 -124 60 -149 79 -11 9 -9 12 10 17 13 4 39 7 56 8 29 1 35
-4 58 -49z m-2188 -100 c-55 -26 -93 -50 -85 -52 7 -3 -2 -5 -19 -5 -18 0 -33
2 -33 3 0 7 96 59 148 80 99 41 91 24 -11 -26z m328 26 c19 -8 35 -17 35 -20
0 -5 -112 23 -119 30 -11 10 53 2 84 -10z m-830 -57 c8 -13 -23 -38 -48 -39
-23 0 -34 29 -16 41 19 12 56 11 64 -2z m-172 -86 c11 -13 15 -23 9 -23 -16 0
-42 41 -41 65 1 20 1 20 6 0 3 -11 14 -30 26 -42z m533 38 c-3 -5 -21 -14 -38
-20 l-33 -11 24 20 c23 20 57 28 47 11z m-286 -16 c0 -8 -4 -15 -10 -15 -5 0
-7 7 -4 15 4 8 8 15 10 15 2 0 4 -7 4 -15z m-38 -35 c22 11 22 10 4 -4 -24
-19 -38 -20 -54 -4 -20 20 -13 32 7 14 16 -14 24 -15 43 -6z m-116 -27 c-7 -7
-26 7 -26 19 0 6 6 6 15 -2 9 -7 13 -15 11 -17z m1039 -177 c17 -12 18 -18 7
-55 -13 -43 -21 -48 -52 -31 -18 9 -18 13 -3 55 16 49 20 52 48 31z m-40 -131
l30 -13 -48 -1 c-41 -1 -53 -6 -92 -42 -38 -35 -45 -38 -45 -22 0 30 37 72 73
82 43 12 47 12 82 -4z m-160 -5 c3 -5 1 -10 -4 -10 -6 0 -29 -16 -51 -36 -43
-39 -48 -38 -25 6 22 42 65 64 80 40z m-122 -24 c-10 -13 -19 -23 -21 -21 -7
6 19 45 29 45 5 0 2 -11 -8 -24z"/>
<path d="M3025 4417 c-15 -37 -31 -95 -23 -87 3 3 15 31 27 63 22 61 19 80 -4
24z"/>
<path d="M3303 4308 c-20 -26 -26 -41 -15 -34 12 7 36 46 29 46 -3 0 -9 -6
-14 -12z"/>
<path d="M3112 3983 c-10 -16 -25 -39 -31 -53 l-12 -25 19 24 c25 31 55 81 48
81 -2 0 -13 -12 -24 -27z"/>
<path d="M2450 4070 c-6 -11 -8 -20 -6 -20 3 0 10 9 16 20 6 11 8 20 6 20 -3
0 -10 -9 -16 -20z"/>
<path d="M2365 3892 c-30 -63 -46 -102 -40 -102 8 0 68 130 63 135 -2 3 -13
-12 -23 -33z"/>
<path d="M3690 4171 c-51 -36 -115 -96 -80 -76 22 13 140 106 140 111 0 6 -2
5 -60 -35z"/>
<path d="M3215 3850 c-9 -16 -13 -30 -11 -30 3 0 12 14 21 30 9 17 13 30 11
30 -3 0 -12 -13 -21 -30z"/>
<path d="M1679 3218 c-50 -65 -52 -67 -44 -28 4 19 5 33 2 30 -8 -8 -65 -241
-72 -295 -6 -47 -3 -43 39 55 24 58 61 142 81 188 20 46 35 86 32 88 -2 3 -19
-14 -38 -38z"/>
<path d="M1724 3186 c-3 -21 -4 -39 -1 -42 2 -3 8 11 11 32 4 20 5 38 2 41 -2
3 -8 -11 -12 -31z"/>
<path d="M1240 3163 c-21 -81 -20 -81 -40 -43 -26 48 -25 15 1 -55 36 -96 14
-70 -25 31 -61 153 -54 100 10 -81 l59 -166 6 178 c4 98 6 179 4 181 -1 1 -8
-19 -15 -45z"/>
<path d="M1853 3093 c-27 -72 -46 -143 -39 -150 6 -6 68 186 64 198 -2 5 -13
-17 -25 -48z"/>
<path d="M866 3043 c42 -77 87 -146 161 -248 28 -38 60 -95 72 -125 l21 -55
-6 55 c-7 74 -32 204 -44 232 -11 24 -11 22 5 -92 l6 -45 -20 25 c-11 14 -48
72 -83 129 -74 122 -118 183 -136 189 -7 2 4 -27 24 -65z"/>
<path d="M1631 2821 c-37 -96 -68 -208 -76 -276 -3 -29 17 27 49 135 30 102
58 193 61 203 4 9 5 17 2 17 -3 0 -19 -36 -36 -79z"/>
<path d="M1790 2778 c-52 -111 -60 -154 -10 -53 42 86 62 135 54 135 -3 0 -22
-37 -44 -82z"/>
<path d="M1933 2700 c-117 -67 -200 -188 -210 -304 -7 -75 0 -71 22 13 9 36
26 83 37 105 27 52 110 139 170 178 26 17 48 33 48 35 0 8 -19 1 -67 -27z"/>
<path d="M2411 2598 c-130 -55 -178 -58 -261 -19 -111 53 -195 38 -273 -49
-21 -22 -75 -116 -121 -209 -46 -93 -109 -212 -140 -264 -31 -53 -56 -99 -56
-103 0 -4 22 24 49 62 62 89 153 174 220 208 29 15 88 33 131 41 128 22 162
48 205 157 26 64 28 67 68 74 69 11 118 32 200 86 42 28 77 52 77 54 0 2 -1 4
-2 3 -2 -1 -45 -19 -97 -41z m-322 -84 c14 -18 21 -41 21 -70 0 -37 -6 -50
-32 -77 -18 -18 -22 -21 -9 -5 16 18 25 44 29 77 4 43 1 53 -21 75 -15 14 -22
26 -17 26 5 0 18 -12 29 -26z m-79 -19 c10 -12 10 -18 0 -30 -27 -32 -71 -8
-56 30 3 8 14 15 24 15 11 0 25 -7 32 -15z m-84 -157 c5 -7 3 -8 -5 -4 -7 5
-21 0 -33 -11 -21 -18 -21 -18 -7 5 15 24 34 29 45 10z"/>
<path d="M1940 2118 c-72 -55 -227 -188 -264 -227 -61 -64 -17 -36 89 56 165
144 241 212 235 212 -3 1 -30 -18 -60 -41z"/>
<path d="M2247 2020 c-162 -54 -308 -125 -405 -195 -96 -70 -66 -66 43 5 116
75 217 123 390 185 72 26 132 49 134 51 11 10 -24 0 -162 -46z"/>
<path d="M1962 2011 c-82 -49 -191 -131 -226 -170 -34 -38 -8 -22 96 57 57 43
131 95 166 116 34 20 62 39 62 42 0 11 -23 0 -98 -45z"/>
<path d="M3250 1890 c50 -44 109 -84 116 -77 3 3 -23 25 -58 49 -81 57 -102
68 -58 28z"/>
<path d="M2890 1906 c0 -3 41 -38 90 -79 91 -75 190 -136 190 -119 0 17 -124
125 -181 159 -54 31 -99 49 -99 39z"/>
<path d="M3205 3416 c-28 -19 -63 -49 -80 -67 -20 -22 -4 -13 53 30 71 54 91
71 79 71 -1 0 -25 -15 -52 -34z"/>
<path d="M3650 3350 c-9 -6 -10 -10 -3 -10 6 0 15 5 18 10 8 12 4 12 -15 0z"/>
<path d="M3341 3115 c-41 -20 -71 -38 -68 -41 6 -7 105 36 139 60 37 26 6 18
-71 -19z"/>
<path d="M2820 3014 c0 -6 65 -34 77 -34 9 1 -58 39 -69 40 -5 0 -8 -2 -8 -6z"/>
<path d="M4147 3140 c-26 -16 -47 -32 -47 -35 0 -9 79 37 92 52 16 19 7 16
-45 -17z"/>
<path d="M3878 2583 c12 -2 32 -2 45 0 12 2 2 4 -23 4 -25 0 -35 -2 -22 -4z"/>
<path d="M3824 2382 c7 -11 98 -29 186 -36 l65 -6 -50 15 c-27 8 -75 17 -105
20 -30 3 -66 8 -78 11 -13 3 -21 1 -18 -4z"/>
<path d="M3679 2186 c14 -17 102 -66 118 -66 9 0 -18 18 -82 55 -33 19 -45 23
-36 11z"/>
<path d="M3511 2959 c-79 -39 -141 -72 -138 -76 15 -15 233 89 277 133 20 20
22 20 -139 -57z"/>
<path d="M4265 2849 c-136 -57 -156 -76 -44 -43 53 16 209 90 209 99 0 11 -31
0 -165 -56z"/>
<path d="M3135 2481 c22 -25 54 -45 61 -38 2 2 -15 17 -38 32 -37 24 -40 25
-23 6z"/>
<path d="M4455 2350 c-22 -10 -34 -19 -27 -19 16 -1 82 26 82 33 0 9 -12 6
-55 -14z"/>
<path d="M908 1903 c7 -3 16 -2 19 1 4 3 -2 6 -13 5 -11 0 -14 -3 -6 -6z"/>
<path d="M4147 1699 c7 -7 36 -13 65 -15 l53 -4 -55 15 c-68 18 -77 18 -63 4z"/>
<path d="M638 1763 c6 -2 18 -2 25 0 6 3 1 5 -13 5 -14 0 -19 -2 -12 -5z"/>
<path d="M598 1753 c7 -3 16 -2 19 1 4 3 -2 6 -13 5 -11 0 -14 -3 -6 -6z"/>
<path d="M823 1723 c9 -2 25 -2 35 0 9 3 1 5 -18 5 -19 0 -27 -2 -17 -5z"/>
</g>
</svg>